<?xml version="1.0" encoding="utf-8"?>
<!-- Generator: Adobe Illustrator 16.0.0, SVG Export Plug-In . SVG Version: 6.00 Build 0)  -->
<!DOCTYPE svg PUBLIC "-//W3C//DTD SVG 1.1//EN" "http://www.w3.org/Graphics/SVG/1.1/DTD/svg11.dtd">
<svg version="1.1" id="Layer_1" xmlns="http://www.w3.org/2000/svg" xmlns:xlink="http://www.w3.org/1999/xlink" x="0px" y="0px"
	 width="40px" height="40px" viewBox="0 0 40 40" enable-background="new 0 0 40 40" xml:space="preserve">
<path fill="#FFFFFF" d="M10.562,10.053c0.394,0,0.764,0.154,1.045,0.436c0.582,0.582,0.582,1.533-0.001,2.115l-5.899,5.898h32.797
	C39.329,18.502,40,19.174,40,20s-0.672,1.498-1.497,1.498H5.706l5.902,5.9c0.582,0.583,0.582,1.53,0,2.113
	c-0.281,0.28-0.652,0.436-1.046,0.436c-0.393,0-0.765-0.155-1.044-0.436L1.063,21.08L0,20l1.018-1.035l8.5-8.475
	C9.798,10.207,10.169,10.053,10.562,10.053z"/>
</svg>
