<?xml version="1.0" encoding="utf-8"?>
<!-- Generator: Adobe Illustrator 16.0.0, SVG Export Plug-In . SVG Version: 6.00 Build 0)  -->
<!DOCTYPE svg PUBLIC "-//W3C//DTD SVG 1.1//EN" "http://www.w3.org/Graphics/SVG/1.1/DTD/svg11.dtd">
<svg version="1.1" id="Layer_1" xmlns="http://www.w3.org/2000/svg" xmlns:xlink="http://www.w3.org/1999/xlink" x="0px" y="0px"
	 width="40px" height="40px" viewBox="0 0 40 40" enable-background="new 0 0 40 40" xml:space="preserve">
<path fill="#FFFFFF" d="M29.438,29.947c-0.394,0-0.764-0.154-1.045-0.436c-0.582-0.582-0.582-1.533,0.001-2.115l5.899-5.898H1.497
	C0.671,21.498,0,20.826,0,20s0.671-1.498,1.497-1.498h32.797l-5.902-5.9c-0.582-0.583-0.582-1.53,0-2.113
	c0.281-0.28,0.652-0.436,1.046-0.436c0.393,0,0.765,0.155,1.044,0.436l8.455,8.432L40,20l-1.018,1.035l-8.5,8.475
	C30.202,29.793,29.831,29.947,29.438,29.947z"/>
</svg>
