<?xml version="1.0" encoding="utf-8"?>
<!-- Generator: Adobe Illustrator 16.0.0, SVG Export Plug-In . SVG Version: 6.00 Build 0)  -->
<!DOCTYPE svg PUBLIC "-//W3C//DTD SVG 1.1//EN" "http://www.w3.org/Graphics/SVG/1.1/DTD/svg11.dtd">
<svg version="1.1" id="Layer_1" xmlns="http://www.w3.org/2000/svg" xmlns:xlink="http://www.w3.org/1999/xlink" x="0px" y="0px"
	 width="200px" height="112.089px" viewBox="0 0 200 112.089" enable-background="new 0 0 200 112.089" xml:space="preserve">
<g>
	<g>
		<path fill="#FFFFFF" d="M33.533,39.162c-6.548-5.579-16.056-5.579-24.139,1.651v-0.626c0-2.618-2.106-4.725-4.67-4.725
			C2.106,35.462,0,37.568,0,40.187v64.389c0,2.563,2.106,4.67,4.725,4.67c2.563,0,4.67-2.104,4.67-4.67V84.251
			c6.433,4.61,14.688,4.781,19.812,2.051C43.895,78.501,47.14,50.605,33.533,39.162z M9.395,75.427V49.011
			C16.91,38.08,32.85,43.831,32.85,61.764C32.85,78.787,17.934,83.397,9.395,75.427z"/>
		<path fill="#FFFFFF" d="M177.969,35.462c-12.127,0-21.977,11.956-21.977,26.756c0,14.746,9.85,26.701,21.977,26.701
			C190.15,88.919,200,76.964,200,62.218C200,47.417,190.15,35.462,177.969,35.462z M177.969,80.666
			c-6.89,0-12.469-8.256-12.469-18.444c0-10.248,5.579-18.503,12.469-18.503c6.889,0,12.525,8.255,12.525,18.503
			C190.494,72.41,184.855,80.666,177.969,80.666z"/>
		<path fill="#FFFFFF" d="M54.826,35.462c-2.62,0-4.727,2.106-4.727,4.725v44.008c0,2.619,2.106,4.727,4.727,4.727
			c2.561,0,4.668-2.105,4.668-4.727V40.187C59.494,37.568,57.387,35.462,54.826,35.462z"/>
		<path fill="#FFFFFF" d="M124.453,35.462c-2.563,0-4.67,2.106-4.67,4.725v44.008c0,2.619,2.105,4.727,4.67,4.727
			c2.619,0,4.727-2.105,4.727-4.727V40.187C129.18,37.568,127.072,35.462,124.453,35.462z"/>
		<path fill="#FFFFFF" d="M89.383,77.478c12.127,0,21.975-9.281,21.975-20.781c0-6.376-3.071-12.127-7.854-15.941l3.073-5.75
			c1.139-2.05,0.341-4.668-1.767-5.806c-2.051-1.082-4.667-0.285-5.808,1.764l-3.074,5.865c-2.106-0.627-4.271-0.968-6.547-0.968
			c-12.126,0-21.919,9.337-21.919,20.838c0,7.457,4.156,14.002,10.361,17.647c-0.911,2.391-1.366,4.725-1.195,6.888
			c0.113,1.652,0.569,3.189,1.366,4.614c0.797,1.422,1.992,2.675,3.53,3.585c2.22,1.311,5.123,1.992,8.824,1.766l0.171-0.058
			c4.782-0.513,7.742,0.739,8.995,2.618c0.512,0.686,0.739,1.48,0.739,2.277c0.058,0.912-0.171,1.879-0.683,2.732
			c-1.367,2.563-4.782,4.668-10.361,4.668c-6.263,0-10.021-3.93-13.266-8.822c-1.309-1.992-3.984-2.508-5.977-1.197
			c-1.993,1.311-2.563,3.984-1.196,5.979c4.896,7.457,11.102,12.693,20.438,12.693c9.165,0,15.2-4.098,17.989-9.164
			c1.194-2.278,1.766-4.727,1.708-7.117c-0.059-2.447-0.797-4.838-2.221-6.943c-2.959-4.271-8.598-7.175-16.91-6.318
			c-1.82,0.113-3.073-0.114-3.813-0.514c-0.228-0.171-0.399-0.283-0.456-0.457c-0.114-0.228-0.228-0.568-0.228-0.908
			c-0.057-0.967,0.171-2.164,0.741-3.418C87.105,77.419,88.244,77.478,89.383,77.478z M76.687,56.697
			c0-6.662,5.693-12.07,12.696-12.07c7.06,0,12.696,5.409,12.696,12.07c0,6.661-5.637,12.012-12.696,12.012
			C82.38,68.708,76.687,63.358,76.687,56.697z"/>
	</g>
	<g>
		<path fill="#E17306" d="M144.037,35.462c-2.563,0-4.669,2.106-4.669,4.725v52.15v8.539c0,1.023-0.854,1.819-1.821,1.819
			c-1.65,0.457-2.39-3.472-7.061-2.221c-2.506,0.687-3.926,3.188-1.938,7.116c2.051,2.732,5.354,4.498,8.996,4.498
			c6.148,0,11.216-5.067,11.216-11.215v-8.539V40.186C148.764,37.568,146.656,35.462,144.037,35.462z"/>
		<path fill="#E17306" d="M152.861,7.907l1.937-3.416c0.853-1.423,0.343-3.244-1.083-4.099c-1.422-0.797-3.244-0.342-4.1,1.082
			l-2.277,3.984c-1.08-0.228-2.163-0.341-3.301-0.341c-1.253,0-2.504,0.17-3.758,0.456l-1.424-2.449
			c-0.797-1.423-2.676-1.937-4.101-1.139c-1.423,0.854-1.877,2.676-1.081,4.099l1.194,2.107c-3.244,2.448-5.237,6.206-5.237,10.361
			c0,7.8,6.891,13.379,14.404,13.379s14.402-5.579,14.402-13.379C158.439,14.226,156.277,10.354,152.861,7.907z M144.037,25.498
			c-3.871,0-7.516-2.903-7.516-6.945c0-4.099,3.645-6.946,7.516-6.946c3.929,0,7.57,2.847,7.57,6.946
			C151.607,22.595,147.966,25.498,144.037,25.498z"/>
	</g>
</g>
</svg>
